<svg xmlns="http://www.w3.org/2000/svg" width="400" height="153" fill="none" viewBox="0 0 400 153">
  <path fill="#E1C36D" d="M0 150.8c117.22-73.33 235.64 77.01 400-53.69V0s-78.15 83.72-193.29 100.56C91.58 117.41 90.1 82.28 0 117.55v33.25Z"/>
  <path fill="#D8AD4E" d="M400 34.43v75.33c-27.65 20.69-71.31 36.62-138.65 25.89C12.48 96 0 138.78 0 138.78v-21.23c46.48-30.62 190.39 4.54 272.83-20.44C355.26 72.13 400 34.43 400 34.43Z"/>
  <path fill="#D8AD4E" d="M400 34.43v75.33c-27.65 20.69-71.75 39.08-138.65 25.89C43.74 92.74 0 138.78 0 138.78v-21.23c46.48-30.62 190.39 4.54 272.83-20.44C355.26 72.13 400 34.43 400 34.43Z"/>
  <path fill="#2D2F3B" d="M0 109.39v8.16c80.43-37.47 198.31 76.47 400 15.07V49.11C189.51 183.73 80.47 47.55 0 109.39Z"/>
</svg>
